<svg width="100" height="100" viewBox="0 0 100 100" fill="none" xmlns="http://www.w3.org/2000/svg">
  <!-- Scroll -->
  <path d="M50 5C48 5 47 6 47 8C47 10 49 11 50 10" stroke="currentColor" stroke-width="2" stroke-linecap="round" fill="none"/>
  <!-- Pegbox (thicker) -->
  <path d="M47 10V17H53V10" stroke="currentColor" stroke-width="2" fill="none"/>
  <!-- Pegs (thicker) -->
  <line x1="44.5" y1="12" x2="47" y2="12" stroke="currentColor" stroke-width="2" stroke-linecap="round"/>
  <line x1="53" y1="14.5" x2="55.5" y2="14.5" stroke="currentColor" stroke-width="2" stroke-linecap="round"/>
  <!-- Neck (short relative to body) -->
  <path d="M48.5 17V30M51.5 17V30" stroke="currentColor" stroke-width="2"/>
  <!-- Upper bout (LARGE) -->
  <path d="M45 30Q33 34 32 43" stroke="currentColor" stroke-width="2" fill="none"/>
  <path d="M55 30Q67 34 68 43" stroke="currentColor" stroke-width="2" fill="none"/>
  <!-- Deep C-bout -->
  <path d="M32 43Q38 47 39 50" stroke="currentColor" stroke-width="2" fill="none"/>
  <path d="M68 43Q62 47 61 50" stroke="currentColor" stroke-width="2" fill="none"/>
  <!-- Large lower bout -->
  <path d="M39 50Q30 55 31 67Q32 77 42 82" stroke="currentColor" stroke-width="2" fill="none"/>
  <path d="M61 50Q70 55 69 67Q68 77 58 82" stroke="currentColor" stroke-width="2" fill="none"/>
  <!-- Bottom -->
  <path d="M42 82Q50 85 58 82" stroke="currentColor" stroke-width="2" fill="none"/>
  <!-- F-holes (large) -->
  <path d="M40 47Q38 54 41 62" stroke="currentColor" stroke-width="1.5" fill="none" stroke-linecap="round"/>
  <path d="M60 47Q62 54 59 62" stroke="currentColor" stroke-width="1.5" fill="none" stroke-linecap="round"/>
  <!-- Bridge -->
  <line x1="42" y1="57" x2="58" y2="57" stroke="currentColor" stroke-width="1.5" stroke-linecap="round"/>
  <!-- Tailpiece -->
  <path d="M46 68L50 79L54 68" stroke="currentColor" stroke-width="1.5" fill="none"/>
  <!-- ENDPIN (signature feature) -->
  <line x1="50" y1="82" x2="50" y2="92" stroke="currentColor" stroke-width="2.5" stroke-linecap="round"/>
  <circle cx="50" cy="94" r="2" stroke="currentColor" stroke-width="1.5" fill="none"/>
</svg>
